<svg width="20" height="20" viewBox="0 0 20 20" fill="none" xmlns="http://www.w3.org/2000/svg">
<path fill-rule="evenodd" clip-rule="evenodd" d="M15.5556 0C14.3768 0 13.2464 0.468252 12.4129 1.30175C11.5794 2.13524 11.1111 3.2657 11.1111 4.44444C11.1111 5.62318 11.5794 6.75365 12.4129 7.58714C13.2464 8.42064 14.3768 8.88889 15.5556 8.88889C16.7343 8.88889 17.8648 8.42064 18.6983 7.58714C19.5317 6.75365 20 5.62318 20 4.44444C20 3.2657 19.5317 2.13524 18.6983 1.30175C17.8648 0.468252 16.7343 0 15.5556 0ZM0 15.5556C0 14.3768 0.468252 13.2464 1.30175 12.4129C2.13524 11.5794 3.2657 11.1111 4.44444 11.1111C5.62318 11.1111 6.75365 11.5794 7.58714 12.4129C8.42064 13.2464 8.88889 14.3768 8.88889 15.5556C8.88889 16.7343 8.42064 17.8648 7.58714 18.6983C6.75365 19.5317 5.62318 20 4.44444 20C3.2657 20 2.13524 19.5317 1.30175 18.6983C0.468252 17.8648 0 16.7343 0 15.5556ZM11.1111 12.2222C11.1111 11.9275 11.2282 11.6449 11.4365 11.4365C11.6449 11.2282 11.9275 11.1111 12.2222 11.1111H18.8889C19.1836 11.1111 19.4662 11.2282 19.6746 11.4365C19.8829 11.6449 20 11.9275 20 12.2222V17.7778C20 18.3671 19.7659 18.9324 19.3491 19.3491C18.9324 19.7659 18.3671 20 17.7778 20H13.3333C12.744 20 12.1787 19.7659 11.762 19.3491C11.3452 18.9324 11.1111 18.3671 11.1111 17.7778V12.2222ZM0 1.11111C0 0.816426 0.117063 0.533811 0.325437 0.325437C0.533811 0.117063 0.816426 0 1.11111 0H7.77778C8.07246 0 8.35508 0.117063 8.56345 0.325437C8.77183 0.533811 8.88889 0.816426 8.88889 1.11111V6.66667C8.88889 7.25604 8.65476 7.82127 8.23802 8.23802C7.82127 8.65476 7.25604 8.88889 6.66667 8.88889H2.22222C1.63285 8.88889 1.06762 8.65476 0.650874 8.23802C0.234126 7.82127 0 7.25604 0 6.66667V1.11111Z" fill="black"/>
</svg>
