<svg width="20" height="20" viewBox="0 0 20 20" fill="none" xmlns="http://www.w3.org/2000/svg">
<path d="M9.25 0C5.031 0.004 2.849 0.08 1.464 1.464C0.08 2.85 0.004 5.031 0 9.25H4.914C4.55442 8.80122 4.29619 8.27997 4.157 7.722C3.62 5.57 5.57 3.62 7.722 4.157C8.294 4.3 8.812 4.563 9.25 4.914V0ZM0 10.75C0.004 14.968 0.08 17.15 1.464 18.535C2.85 19.92 5.031 19.995 9.25 20V12.123C8.85556 12.9125 8.24899 13.5764 7.49831 14.0404C6.74762 14.5045 5.88251 14.7502 5 14.75C4.80109 14.75 4.61032 14.671 4.46967 14.5303C4.32902 14.3897 4.25 14.1989 4.25 14C4.25 13.8011 4.32902 13.6103 4.46967 13.4697C4.61032 13.329 4.80109 13.25 5 13.25C5.73162 13.25 6.44185 13.0032 7.01583 12.5495C7.58981 12.0958 7.99399 11.4618 8.163 10.75H0ZM10.75 20C14.968 19.995 17.15 19.92 18.535 18.535C19.92 17.151 19.995 14.968 20 10.75H11.837C12.006 11.4618 12.4102 12.0958 12.9842 12.5495C13.5581 13.0032 14.2684 13.25 15 13.25C15.1989 13.25 15.3897 13.329 15.5303 13.4697C15.671 13.6103 15.75 13.8011 15.75 14C15.75 14.1989 15.671 14.3897 15.5303 14.5303C15.3897 14.671 15.1989 14.75 15 14.75C14.1175 14.7502 13.2524 14.5045 12.5017 14.0404C11.751 13.5764 11.1444 12.9125 10.75 12.123V20ZM20 9.25C19.995 5.031 19.92 2.849 18.535 1.464C17.151 0.08 14.968 0.004 10.75 0V4.914C11.1985 4.55458 11.7194 4.29635 12.277 4.157C14.43 3.619 16.381 5.569 15.842 7.722C15.7031 8.27988 15.4452 8.80113 15.086 9.25H20Z" fill="black"/>
<path d="M7.35801 5.613C7.89829 5.74793 8.37797 6.05959 8.72078 6.49843C9.0636 6.93728 9.24988 7.47813 9.25001 8.035V9.25H8.03501C7.47814 9.24987 6.93729 9.06359 6.49844 8.72077C6.0596 8.37796 5.74794 7.89828 5.61301 7.358C5.55306 7.11697 5.55647 6.86453 5.62292 6.62521C5.68936 6.38589 5.81657 6.16782 5.9922 5.99219C6.16783 5.81656 6.3859 5.68935 6.62522 5.62291C6.86454 5.55646 7.11698 5.55305 7.35801 5.613ZM10.75 8.035V9.25H11.965C13.11 9.25 14.109 8.47 14.387 7.358C14.447 7.11687 14.4436 6.86431 14.3772 6.62488C14.3107 6.38545 14.1834 6.16729 14.0076 5.99163C13.8318 5.81598 13.6136 5.68879 13.3741 5.62244C13.1347 5.55609 12.8821 5.55284 12.641 5.613C12.1009 5.74812 11.6215 6.05986 11.2788 6.49869C10.9362 6.93752 10.7501 7.47826 10.75 8.035Z" fill="black"/>
</svg>
