<svg width="20" height="20" viewBox="0 0 20 20" fill="none" xmlns="http://www.w3.org/2000/svg">
<path d="M8 4.66045e-09C8.76521 -4.26217e-05 9.50151 0.292325 10.0583 0.817284C10.615 1.34224 10.9501 2.06011 10.995 2.824L11 3V4H14C14.5046 3.99984 14.9906 4.19041 15.3605 4.5335C15.7305 4.87659 15.9572 5.34684 15.995 5.85L16 6V9H17C17.7809 8.99925 18.5313 9.30302 19.0918 9.84677C19.6523 10.3905 19.9787 11.1314 20.0016 11.912C20.0245 12.6925 19.7422 13.4513 19.2145 14.027C18.6869 14.6027 17.9556 14.9499 17.176 14.995L17 15H16V18C16.0002 18.5046 15.8096 18.9906 15.4665 19.3605C15.1234 19.7305 14.6532 19.9572 14.15 19.995L14 20H11C10.4954 20.0002 10.0094 19.8096 9.63945 19.4665C9.26947 19.1234 9.04284 18.6532 9.005 18.15L9 18V17C8.99972 16.7451 8.90212 16.5 8.72715 16.3146C8.55218 16.1293 8.31305 16.0178 8.05861 16.0028C7.80416 15.9879 7.55362 16.0707 7.35817 16.2343C7.16271 16.3979 7.0371 16.6299 7.007 16.883L7 17V18C7.00016 18.5046 6.80959 18.9906 6.4665 19.3605C6.12341 19.7305 5.65316 19.9572 5.15 19.995L5 20H2C1.49542 20.0002 1.00943 19.8096 0.639452 19.4665C0.269471 19.1234 0.0428434 18.6532 0.00500021 18.15L1.00268e-07 18V15C-0.000159579 14.4954 0.190406 14.0094 0.533497 13.6395C0.876587 13.2695 1.34684 13.0428 1.85 13.005L2 13H3C3.25488 12.9997 3.50003 12.9021 3.68537 12.7272C3.8707 12.5522 3.98223 12.313 3.99717 12.0586C4.01211 11.8042 3.92933 11.5536 3.76574 11.3582C3.60214 11.1627 3.3701 11.0371 3.117 11.007L3 11H2C1.49542 11.0002 1.00943 10.8096 0.639452 10.4665C0.269471 10.1234 0.0428434 9.65315 0.00500021 9.15L1.00268e-07 9V6C-0.000159579 5.49542 0.190406 5.00943 0.533497 4.63945C0.876587 4.26947 1.34684 4.04284 1.85 4.005L2 4H5V3C5 2.20435 5.31607 1.44129 5.87868 0.87868C6.44129 0.316071 7.20435 4.66045e-09 8 4.66045e-09Z" fill="black"/>
</svg>
