<svg width="44" height="44" viewBox="0 0 44 44" fill="none" xmlns="http://www.w3.org/2000/svg">
<mask id="mask0_10_27" style="mask-type:luminance" maskUnits="userSpaceOnUse" x="0" y="0" width="44" height="44">
<path d="M16.284 41.171C12.9761 40.1833 9.98018 38.3561 7.588 35.867C8.35768 34.9541 8.83747 33.8323 8.96599 32.6452C9.09451 31.4581 8.86591 30.2597 8.30944 29.2032C7.75298 28.1468 6.89395 27.2804 5.84229 26.7149C4.79063 26.1494 3.59417 25.9106 2.406 26.029C2.13532 24.7031 1.9993 23.3532 2 22C2 19.91 2.32 17.894 2.916 16H3C4.01976 16.0003 5.02277 15.7407 5.91434 15.2457C6.8059 14.7507 7.55659 14.0367 8.09553 13.171C8.63447 12.3053 8.94387 11.3165 8.99452 10.298C9.04517 9.2795 8.8354 8.2649 8.385 7.34999C10.7296 5.16682 13.5651 3.57982 16.652 2.72299C17.1544 3.70939 17.9198 4.53759 18.8637 5.11594C19.8076 5.6943 20.893 6.00027 22 5.99999C23.107 6.00027 24.1924 5.6943 25.1363 5.11594C26.0802 4.53759 26.8456 3.70939 27.348 2.72299C30.4349 3.57982 33.2704 5.16682 35.615 7.34999C35.1613 8.2713 34.9517 9.29364 35.0062 10.3191C35.0608 11.3447 35.3776 12.339 35.9264 13.207C36.4752 14.075 37.2376 14.7877 38.1407 15.2767C39.0437 15.7657 40.0572 16.0148 41.084 16C41.693 17.9417 42.0018 19.965 42 22C42 23.38 41.86 24.728 41.594 26.03C40.4058 25.9116 39.2094 26.1504 38.1577 26.7159C37.1061 27.2814 36.247 28.1478 35.6906 29.2042C35.1341 30.2607 34.9055 31.4591 35.034 32.6462C35.1625 33.8333 35.6423 34.9551 36.412 35.868C34.0197 38.3567 31.0238 40.1836 27.716 41.171C27.3276 39.9603 26.5647 38.9042 25.5374 38.1549C24.5102 37.4057 23.2715 37.0019 22 37.0019C20.7285 37.0019 19.4899 37.4057 18.4626 38.1549C17.4353 38.9042 16.6725 39.9603 16.284 41.171Z" fill="#555555" stroke="white" stroke-width="4" stroke-linejoin="round"/>
<path d="M22 29C22.9193 29 23.8295 28.8189 24.6788 28.4672C25.5281 28.1154 26.2997 27.5998 26.9497 26.9497C27.5998 26.2997 28.1154 25.5281 28.4672 24.6788C28.8189 23.8295 29 22.9193 29 22C29 21.0807 28.8189 20.1705 28.4672 19.3212C28.1154 18.4719 27.5998 17.7003 26.9497 17.0503C26.2997 16.4002 25.5281 15.8846 24.6788 15.5328C23.8295 15.1811 22.9193 15 22 15C20.1435 15 18.363 15.7375 17.0503 17.0503C15.7375 18.363 15 20.1435 15 22C15 23.8565 15.7375 25.637 17.0503 26.9497C18.363 28.2625 20.1435 29 22 29Z" fill="#555555" stroke="white" stroke-width="4" stroke-linejoin="round"/>
</mask>
<g mask="url(#mask0_10_27)">
<path d="M-2 -2H46V46H-2V-2Z" fill="black"/>
</g>
</svg>
