<svg width="15" height="20" viewBox="0 0 15 20" fill="none" xmlns="http://www.w3.org/2000/svg">
<path d="M7.5 20C11.6175 20 15 16.737 15 12.549C15 11.521 14.9475 10.419 14.3775 8.706C13.8075 6.993 13.693 6.772 13.0905 5.714C12.833 7.8725 11.4555 8.7725 11.1055 9.0415C11.1055 8.7615 10.2725 5.668 9.009 3.8165C7.7685 2 6.0815 0.8085 5.0925 0C5.0925 1.535 4.661 3.817 4.0425 4.98C3.4245 6.1425 3.3085 6.185 2.536 7.05C1.764 7.915 1.4095 8.1825 0.7635 9.2325C0.118 10.2825 0 11.681 0 12.709C0 16.897 3.3825 20 7.5 20Z" fill="black"/>
</svg>
